<?xml version="1.0" encoding="UTF-8"?><svg id="Layer_2" xmlns="http://www.w3.org/2000/svg" width="446.07" height="60.77" viewBox="0 0 446.07 60.77"><defs><style>.cls-1{fill:#2b0a99;}.cls-1,.cls-2,.cls-3{stroke-width:0px;}.cls-3{fill:#aa9dd6;}</style></defs><g id="Layer_1-2"><g id="Layer_1-2"><path class="cls-2" d="m97.44,32.17c-2.52-.87-4.72-1.47-4.72-2.78v-.09c0-.91.83-1.61,2.43-1.61,1.69,0,3.99.83,6.28,2.17l2.51-4.55c-2.51-1.69-5.72-2.69-8.67-2.69-4.68,0-8.5,2.64-8.5,7.37v.09c0,4.51,3.69,6.03,6.94,6.98,2.56.78,4.81,1.26,4.81,2.69v.09c0,1.04-.87,1.73-2.78,1.73-2.17,0-4.81-.95-7.33-2.78l-2.82,4.34c3.08,2.43,6.72,3.51,9.97,3.51,5.03,0,8.89-2.35,8.89-7.5v-.09c0-4.25-3.77-5.81-7.02-6.89h0Z"/><path class="cls-2" d="m116.66,22.72c-3.95,0-6.46.74-9.01,1.86l1.65,5.03c2.12-.78,3.9-1.26,6.42-1.26,3.3,0,4.98,1.51,4.98,4.25v.39c-1.65-.56-3.34-.95-5.68-.95-5.5,0-9.36,2.34-9.36,7.41v.09c0,4.59,3.6,7.11,7.98,7.11,3.21,0,5.42-1.17,7.02-2.95v2.51h6.37v-13.48c0-3.12-.78-5.68-2.51-7.41-1.65-1.65-4.25-2.6-7.84-2.6h0Zm4.12,15.3c0,2.39-2.08,4.07-5.16,4.07-2.12,0-3.6-1.04-3.6-2.82v-.09c0-2.08,1.74-3.21,4.55-3.21,1.61,0,3.08.34,4.2.87v1.17h0Z"/><path class="cls-2" d="m143.5,23.23h-5.33v-.91c0-1.73.87-2.51,2.39-2.51,1.13,0,2.04.22,2.99.56v-5.46c-1.22-.39-2.6-.65-4.68-.65-2.35,0-4.12.61-5.33,1.82-1.22,1.22-1.86,3.08-1.86,5.64v1.47h-2.73v5.42h2.73v17.6h6.59v-17.6h5.25v-5.37h0Z"/><path class="cls-2" d="m154.86,22.54c-6.76,0-11.49,5.46-11.49,12.09v.09c0,7.11,5.16,12.01,12.14,12.01,4.21,0,7.33-1.65,9.5-4.34l-3.77-3.34c-1.82,1.69-3.42,2.38-5.64,2.38-2.95,0-5.03-1.56-5.68-4.55h16.17c.04-.61.09-1.22.09-1.73,0-6.59-3.56-12.62-11.32-12.62h0Zm-5.03,10.23c.52-2.99,2.3-4.94,5.03-4.94s4.51,2,4.9,4.94h-9.93Z"/><polygon class="cls-2" points="206.54 22.97 202.73 37.11 198.3 22.89 192.62 22.89 188.25 37.06 184.52 22.97 177.84 22.97 185 46.38 190.89 46.38 195.44 32.12 199.91 46.38 205.85 46.38 213.09 22.97 206.54 22.97"/><path class="cls-2" d="m225.32,22.54c-7.24,0-12.62,5.42-12.62,12.09v.09c0,6.67,5.33,12.01,12.53,12.01s12.62-5.42,12.62-12.09v-.09c0-6.67-5.33-12.01-12.53-12.01Zm6.03,12.18c0,3.42-2.25,6.33-6.03,6.33s-6.11-2.99-6.11-6.42v-.09c0-3.42,2.25-6.33,6.03-6.33s6.11,2.99,6.11,6.42v.09Z"/><path class="cls-2" d="m247.05,27.65v-4.68h-6.59v23.23h6.59v-8.58c0-5.55,2.69-8.19,7.07-8.19h.35v-6.89c-3.9-.17-6.07,1.91-7.41,5.11h0Z"/><polygon class="cls-2" points="278.61 22.97 270.72 22.97 263.01 31.43 263.01 14.56 256.42 14.56 256.42 46.21 263.01 46.21 263.01 39.14 265.35 36.67 271.29 46.21 278.91 46.21 269.77 32.12 278.61 22.97"/><path class="cls-2" d="m298.99,23.5c-3.25,0-5.68.74-8.15,1.86l1,2.73c2.08-.95,4.16-1.65,6.8-1.65,4.21,0,6.67,2.08,6.67,6.11v.78c-2-.56-4.03-.96-6.89-.96-5.68,0-9.58,2.52-9.58,7.24v.09c0,4.59,4.2,6.98,8.37,6.98,3.95,0,6.55-1.82,8.11-3.86v3.38h3.21v-13.7c0-2.86-.78-5.03-2.3-6.54-1.65-1.65-4.08-2.47-7.24-2.47h0Zm6.37,14.48c0,3.56-3.38,6.07-7.5,6.07-3.03,0-5.64-1.65-5.64-4.47v-.09c0-2.82,2.34-4.64,6.54-4.64,2.73,0,4.94.48,6.59.95v2.17h0Z"/><path class="cls-2" d="m329.39,36.63c0,4.2-2.9,7.02-6.72,7.02s-6.2-2.6-6.2-6.76v-13.09h-3.34v13.92c0,5.33,3.17,8.97,8.58,8.97,3.86,0,6.16-1.95,7.67-4.38v3.9h3.3v-22.41h-3.3v12.83h0Z"/><path class="cls-2" d="m346.21,33.42c-2.99-.91-5.76-1.73-5.76-3.86v-.09c0-1.86,1.69-3.25,4.34-3.25,2.17,0,4.55.83,6.63,2.17l1.52-2.51c-2.3-1.52-5.33-2.47-8.07-2.47-4.42,0-7.63,2.56-7.63,6.42v.09c0,4.12,3.9,5.33,7.41,6.33,2.95.83,5.59,1.69,5.59,3.95v.09c0,2.17-1.95,3.56-4.64,3.56s-5.33-1.04-7.76-2.86l-1.69,2.39c2.51,2.04,6.07,3.3,9.28,3.3,4.47,0,7.98-2.47,7.98-6.72v-.09c0-4.03-3.73-5.37-7.2-6.42h0Z"/><path class="cls-2" d="m361.52,17.03h-3.34v6.76h-3.12v2.95h3.12v13.53c0,4.55,2.73,6.33,6.33,6.33,1.61,0,2.86-.35,4.03-.95v-2.86c-1.17.56-2.13.78-3.25.78-2.25,0-3.77-1-3.77-3.73v-13.09h7.11v-2.95h-7.11v-6.76h0Z"/><path class="cls-2" d="m375.71,29.65v-5.85h-3.34v22.41h3.34v-8.93c0-6.76,3.99-10.28,8.89-10.28h.26v-3.6c-4.25-.17-7.5,2.52-9.15,6.24h0Z"/><path class="cls-2" d="m395.13,23.5c-3.25,0-5.68.74-8.15,1.86l1,2.73c2.08-.95,4.16-1.65,6.81-1.65,4.2,0,6.67,2.08,6.67,6.11v.78c-2-.56-4.03-.96-6.89-.96-5.68,0-9.58,2.52-9.58,7.24v.09c0,4.59,4.2,6.98,8.37,6.98,3.95,0,6.54-1.82,8.11-3.86v3.38h3.21v-13.7c0-2.86-.78-5.03-2.29-6.54-1.65-1.65-4.08-2.47-7.24-2.47h0Zm6.37,14.48c0,3.56-3.38,6.07-7.5,6.07-3.03,0-5.64-1.65-5.64-4.47v-.09c0-2.82,2.34-4.64,6.54-4.64,2.73,0,4.94.48,6.59.95v2.17h0Z"/><rect class="cls-2" x="409.92" y="14.57" width="3.34" height="31.65"/><rect class="cls-2" x="418.94" y="15.22" width="3.82" height="3.69"/><rect class="cls-2" x="419.15" y="23.8" width="3.34" height="22.41"/><path class="cls-2" d="m443.78,25.97c-1.65-1.65-4.08-2.47-7.24-2.47s-5.68.74-8.15,1.86l1,2.73c2.08-.95,4.16-1.65,6.81-1.65,4.2,0,6.67,2.08,6.67,6.11v.78c-1.99-.56-4.03-.96-6.89-.96-5.68,0-9.58,2.52-9.58,7.24v.09c0,4.59,4.2,6.98,8.37,6.98,3.95,0,6.54-1.82,8.1-3.86v3.38h3.21v-13.7c0-2.86-.78-5.03-2.3-6.54h0Zm-.87,12.01c0,3.56-3.38,6.07-7.5,6.07-3.03,0-5.64-1.65-5.64-4.47v-.09c0-2.82,2.34-4.64,6.54-4.64,2.73,0,4.94.48,6.59.95v2.17h0Z"/></g><path class="cls-1" d="m46.51,34.68l-17.34,17.34c-2.71,2.71-7.1,2.71-9.81,0L2.03,34.68c-2.71-2.71-2.71-7.1,0-9.81L19.37,7.54c2.71-2.71,7.1-2.71,9.81,0l17.34,17.34c2.71,2.71,2.71,7.1,0,9.81"/><path class="cls-3" d="m40.46,3.45c-.66,0-1.33.25-1.83.76l-21.05,21.05c-.49.49-.76,1.14-.76,1.83s.27,1.34.76,1.83l21.05,21.05c1.01,1.01,2.65,1.01,3.66,0l21.05-21.05c.49-.49.76-1.14.76-1.83s-.27-1.34-.76-1.83L42.29,4.2c-.5-.5-1.17-.76-1.83-.76m0,50.71c-1.55,0-3.09-.59-4.27-1.76L15.15,31.35c-2.35-2.35-2.35-6.18,0-8.54L36.19,1.76c2.36-2.35,6.19-2.35,8.54,0l21.05,21.05c1.14,1.14,1.77,2.66,1.77,4.27s-.63,3.13-1.77,4.27l-21.05,21.05c-1.18,1.18-2.72,1.76-4.27,1.76"/><path class="cls-3" d="m59.55,57.38l-2.72,2.72c-.9.9-2.37.9-3.27,0l-2.72-2.72c-.9-.9-.9-2.37,0-3.27l2.72-2.72c.9-.9,2.37-.9,3.27,0l2.72,2.72c.9.9.9,2.37,0,3.27"/></g></svg>